<svg xmlns="http://www.w3.org/2000/svg" viewBox="0 0 512 512">
  <defs>
    <linearGradient id="bg" x1="0" y1="0" x2="1" y2="1">
      <stop offset="0%" stop-color="#c1121f"/>
      <stop offset="100%" stop-color="#120204"/>
    </linearGradient>
    <linearGradient id="band" x1="0" y1="0" x2="1" y2="0">
      <stop offset="0%" stop-color="#ffffff" stop-opacity=".95"/>
      <stop offset="100%" stop-color="#ffffff" stop-opacity=".2"/>
    </linearGradient>
  </defs>
  <rect width="512" height="512" rx="112" fill="url(#bg)"/>
  <rect x="72" y="88" width="368" height="84" rx="22" fill="#0b0b0d" opacity=".92"/>
  <g fill="#fff">
    <rect x="97" y="106" width="50" height="16" rx="8" transform="rotate(-24 97 106)"/>
    <rect x="175" y="106" width="50" height="16" rx="8" transform="rotate(-24 175 106)"/>
    <rect x="253" y="106" width="50" height="16" rx="8" transform="rotate(-24 253 106)"/>
    <rect x="331" y="106" width="50" height="16" rx="8" transform="rotate(-24 331 106)"/>
  </g>
  <rect x="72" y="160" width="368" height="264" rx="42" fill="#0b0b0d" opacity=".94" stroke="rgba(255,255,255,.18)"/>
  <rect x="96" y="184" width="320" height="8" rx="4" fill="url(#band)" opacity=".8"/>
  <text x="256" y="313" text-anchor="middle" font-family="Inter,Arial,sans-serif" font-size="108" font-weight="700" fill="#ffffff">SDAC</text>
  <text x="256" y="372" text-anchor="middle" font-family="Inter,Arial,sans-serif" font-size="34" font-weight="600" fill="#ffffff" opacity=".9">AGENDA</text>
</svg>